<svg width="150" height="150" viewBox="0 0 150 150" fill="none" xmlns="http://www.w3.org/2000/svg">
<rect width="150" height="150" fill="#F5F5F5"/>
<path d="M35.825 108.822C36.833 107.842 38.107 105.91 38.723 104.748C38.849 104.496 39.059 104.188 39.185 103.992L37.841 102.942C37.575 103.082 37.239 103.18 36.847 103.278C36.217 103.418 34.257 103.824 32.213 104.202V102.55C32.213 102.074 32.269 101.374 32.339 100.954H30.253C30.323 101.374 30.365 102.088 30.365 102.55V104.552C28.979 104.804 27.747 105.014 27.089 105.098L27.425 106.932C28.013 106.792 29.119 106.568 30.365 106.316V110.138C30.365 111.79 30.827 112.56 34.019 112.56C35.517 112.56 37.197 112.42 38.359 112.252L38.415 110.362C37.029 110.628 35.475 110.824 33.991 110.824C32.465 110.824 32.213 110.516 32.213 109.648V105.938C34.201 105.546 36.091 105.168 36.525 105.084C36.133 105.812 35.209 107.086 34.285 107.912L35.825 108.822ZM43.791 101.36L42.475 102.76C43.497 103.474 45.247 105 45.975 105.784L47.403 104.314C46.591 103.474 44.771 102.018 43.791 101.36ZM42.041 110.684L43.217 112.532C45.191 112.196 46.997 111.412 48.411 110.558C50.665 109.2 52.527 107.268 53.591 105.378L52.499 103.404C51.617 105.294 49.783 107.436 47.403 108.85C46.045 109.662 44.225 110.376 42.041 110.684ZM58.743 100.912L57.721 102.452C58.645 102.97 60.101 103.922 60.885 104.468L61.935 102.914C61.207 102.41 59.667 101.43 58.743 100.912ZM56.139 110.852L57.189 112.7C58.435 112.476 60.437 111.776 61.865 110.964C64.161 109.648 66.135 107.87 67.437 105.938L66.359 104.034C65.239 106.036 63.293 107.954 60.913 109.284C59.387 110.11 57.707 110.586 56.139 110.852ZM56.587 104.104L55.565 105.658C56.517 106.148 57.959 107.1 58.757 107.646L59.779 106.078C59.065 105.574 57.525 104.608 56.587 104.104ZM78.357 103.012C78.847 103.012 79.379 103.04 79.869 103.068V101.262C79.393 101.332 78.833 101.36 78.357 101.36H72.729C72.267 101.36 71.693 101.332 71.245 101.262V103.068C71.665 103.04 72.253 103.012 72.743 103.012H78.357ZM70.951 104.93C70.517 104.93 70.027 104.888 69.607 104.846V106.68C69.999 106.652 70.545 106.624 70.951 106.624H74.801C74.745 107.8 74.507 108.85 73.933 109.718C73.373 110.53 72.393 111.342 71.399 111.72L73.037 112.91C74.283 112.28 75.361 111.188 75.851 110.222C76.355 109.242 76.663 108.066 76.747 106.624H80.121C80.513 106.624 81.045 106.638 81.395 106.666V104.846C81.017 104.902 80.415 104.93 80.121 104.93H70.951ZM91.579 103.222C90.879 104.132 89.409 105.294 87.981 106.134C86.875 106.778 84.845 107.646 83.039 108.024L83.977 109.648C85.153 109.326 86.693 108.71 87.925 108.122V111.72C87.925 112.21 87.897 112.952 87.855 113.232H89.927C89.843 112.952 89.829 112.21 89.829 111.72V107.058C91.103 106.232 92.321 105.252 92.979 104.524L91.579 103.222ZM107.287 102.046C107.035 101.542 106.573 100.73 106.209 100.198L105.061 100.674C105.327 101.08 105.607 101.57 105.845 102.032C105.593 102.06 105.355 102.06 105.187 102.06H98.705C98.243 102.06 97.445 102.004 97.039 101.948V103.922C97.403 103.894 98.061 103.866 98.705 103.866H105.229C105.033 105.07 104.501 106.652 103.577 107.814C102.443 109.242 100.875 110.446 98.089 111.104L99.615 112.77C102.121 111.972 103.983 110.586 105.243 108.906C106.419 107.352 107.021 105.182 107.343 103.81C107.427 103.516 107.525 103.11 107.651 102.844L106.769 102.27L107.287 102.046ZM107.007 100.324C107.385 100.828 107.819 101.626 108.127 102.2L109.289 101.696C109.023 101.206 108.519 100.352 108.169 99.848L107.007 100.324ZM122.799 104.356C122.099 103.852 120.377 102.914 119.383 102.48L118.487 103.852C119.439 104.272 121.021 105.182 121.819 105.826L122.799 104.356ZM117.577 102.228C117.031 102.396 116.387 102.55 115.715 102.662C115.911 101.92 116.079 101.22 116.191 100.772L114.273 100.576C114.245 101.29 114.091 102.13 113.895 102.9C113.475 102.928 113.055 102.942 112.649 102.942C112.145 102.942 111.403 102.914 110.801 102.844L110.927 104.468C111.529 104.496 112.089 104.51 112.663 104.51C112.901 104.51 113.139 104.51 113.377 104.496C112.761 105.994 111.669 108.038 110.549 109.396L112.243 110.25C113.363 108.668 114.553 106.26 115.211 104.314C116.135 104.188 116.989 104.006 117.619 103.838L117.577 102.228ZM117.913 109.942C117.913 110.684 117.605 111.23 116.667 111.23C115.911 111.23 115.477 110.88 115.477 110.362C115.477 109.872 115.995 109.536 116.793 109.536C117.185 109.536 117.549 109.592 117.913 109.676V109.942ZM117.689 105.084C117.731 105.924 117.801 107.142 117.843 108.178C117.549 108.15 117.227 108.122 116.905 108.122C114.973 108.122 113.839 109.172 113.839 110.53C113.839 112.056 115.197 112.826 116.919 112.826C118.893 112.826 119.593 111.818 119.593 110.53V110.404C120.349 110.866 120.979 111.426 121.469 111.874L122.393 110.39C121.693 109.76 120.713 109.06 119.523 108.612C119.481 107.926 119.453 107.254 119.439 106.862C119.425 106.246 119.397 105.672 119.439 105.084H117.689ZM24.222 130.308C24.194 129.888 24.166 129.146 24.166 128.656V121.404C24.166 120.998 24.194 120.438 24.208 120.116C23.97 120.13 23.382 120.144 22.976 120.144H15.934C15.444 120.144 14.716 120.116 14.198 120.06V122.006C14.59 121.978 15.346 121.95 15.934 121.95H22.22V127.746H15.766C15.136 127.746 14.506 127.704 14.016 127.662V129.664C14.478 129.622 15.276 129.58 15.822 129.58H22.206C22.206 129.846 22.206 130.084 22.192 130.308H24.222ZM29.374 119.36L28.058 120.76C29.08 121.474 30.83 123 31.558 123.784L32.986 122.314C32.174 121.474 30.354 120.018 29.374 119.36ZM27.624 128.684L28.8 130.532C30.774 130.196 32.58 129.412 33.994 128.558C36.248 127.2 38.11 125.268 39.174 123.378L38.082 121.404C37.2 123.294 35.366 125.436 32.986 126.85C31.628 127.662 29.808 128.376 27.624 128.684ZM49.94 121.012C50.43 121.012 50.962 121.04 51.452 121.068V119.262C50.976 119.332 50.416 119.36 49.94 119.36H44.312C43.85 119.36 43.276 119.332 42.828 119.262V121.068C43.248 121.04 43.836 121.012 44.326 121.012H49.94ZM42.534 122.93C42.1 122.93 41.61 122.888 41.19 122.846V124.68C41.582 124.652 42.128 124.624 42.534 124.624H46.384C46.328 125.8 46.09 126.85 45.516 127.718C44.956 128.53 43.976 129.342 42.982 129.72L44.62 130.91C45.866 130.28 46.944 129.188 47.434 128.222C47.938 127.242 48.246 126.066 48.33 124.624H51.704C52.096 124.624 52.628 124.638 52.978 124.666V122.846C52.6 122.902 51.998 122.93 51.704 122.93H42.534ZM57.374 119.36L56.058 120.76C57.08 121.474 58.83 123 59.558 123.784L60.986 122.314C60.174 121.474 58.354 120.018 57.374 119.36ZM55.624 128.684L56.8 130.532C58.774 130.196 60.58 129.412 61.994 128.558C64.248 127.2 66.11 125.268 67.174 123.378L66.082 121.404C65.2 123.294 63.366 125.436 60.986 126.85C59.628 127.662 57.808 128.376 55.624 128.684ZM74.622 119.094L72.872 119.668C73.292 120.536 74.062 122.566 74.328 123.462L76.092 122.846C75.826 121.936 74.972 119.78 74.622 119.094ZM78.92 119.612C78.71 121.53 77.912 124.036 76.764 125.492C75.336 127.298 73.152 128.558 71.234 129.104L72.802 130.672C74.804 129.916 76.834 128.502 78.304 126.57C79.466 125.044 80.264 122.818 80.656 121.306C80.74 120.984 80.866 120.564 81.006 120.214L78.92 119.612ZM70.73 119.962L68.938 120.578C69.344 121.334 70.268 123.63 70.548 124.54L72.354 123.882C72.032 122.93 71.164 120.844 70.73 119.962ZM85.822 127.48C85.304 127.48 84.744 126.794 84.744 125.394C84.744 123.868 85.962 121.852 88.258 121.376C88.09 122.524 87.838 123.714 87.516 124.736C86.956 126.612 86.396 127.48 85.822 127.48ZM89.63 130.574C93.13 130.042 94.922 127.97 94.922 125.058C94.922 122.034 92.752 119.64 89.322 119.64C85.724 119.64 82.938 122.384 82.938 125.576C82.938 127.914 84.24 129.608 85.766 129.608C87.278 129.608 88.482 127.9 89.308 125.1C89.7 123.798 89.938 122.51 90.134 121.334C91.996 121.656 93.032 123.084 93.032 125.002C93.032 127.018 91.66 128.292 89.882 128.712C89.518 128.796 89.126 128.866 88.594 128.936L89.63 130.574ZM102.286 123.91V126.15H99.626V123.91H102.286ZM103.938 127.746V122.328H98.002V128.81H99.626V127.746H103.938ZM109.328 119.08H96.714V120.76H105.968V129.076C105.968 129.37 105.842 129.468 105.52 129.468C105.184 129.468 103.966 129.482 102.972 129.426C103.224 129.874 103.56 130.7 103.658 131.19C105.086 131.19 106.122 131.162 106.822 130.882C107.48 130.602 107.718 130.112 107.718 129.104V120.76H109.328V119.08ZM121.634 124.428C122.922 124.428 123.356 123.91 123.538 122.118C123.09 122.02 122.404 121.754 122.068 121.502C122.012 122.72 121.914 122.93 121.466 122.93H119.94C119.408 122.93 119.324 122.874 119.324 122.37V121.544C120.542 121.18 121.858 120.732 122.908 120.228L121.844 119.024C121.186 119.388 120.262 119.822 119.324 120.186V118.184H117.672V122.398C117.672 123.938 118.064 124.428 119.702 124.428H121.634ZM112.828 127.326V126.5H114.928V127.326H112.828ZM114.928 124.54V125.268H112.828V124.54H114.928ZM116.566 123.168H111.288V131.204H112.828V128.558H114.928V129.496C114.928 129.664 114.872 129.706 114.704 129.706C114.522 129.72 113.962 129.734 113.472 129.706C113.682 130.098 113.92 130.742 114.004 131.176C114.844 131.176 115.488 131.162 115.964 130.896C116.426 130.658 116.566 130.252 116.566 129.524V123.168ZM114.466 119.598C114.69 119.962 114.914 120.354 115.124 120.746L113.262 120.83C113.612 120.088 113.99 119.248 114.312 118.436L112.576 118.086C112.338 118.94 111.946 120.018 111.554 120.9C111.162 120.914 110.798 120.928 110.462 120.928L110.602 122.51C112.03 122.426 113.934 122.314 115.782 122.188C115.894 122.454 115.978 122.706 116.034 122.93L117.56 122.314C117.294 121.404 116.552 120.074 115.866 119.066L114.466 119.598ZM119.954 129.664C119.408 129.664 119.31 129.594 119.31 129.104V127.984C120.584 127.592 121.97 127.088 123.048 126.5L121.942 125.282C121.27 125.73 120.304 126.192 119.31 126.598V124.708H117.672V129.104C117.672 130.644 118.078 131.12 119.716 131.12H121.704C123.048 131.12 123.468 130.574 123.65 128.6C123.216 128.488 122.544 128.236 122.194 127.984C122.124 129.398 122.026 129.664 121.55 129.664H119.954ZM134.164 129.188V126.388H136.726V124.834H134.164V122.538H137.02V120.97H134.164V118.226H132.498V120.97H131.378C131.518 120.34 131.63 119.682 131.728 119.024L130.104 118.8C129.964 119.99 129.712 121.194 129.362 122.216C129.166 121.67 128.872 120.998 128.592 120.452L127.78 120.788V118.142H126.114V120.998L124.938 120.83C124.84 121.978 124.588 123.546 124.252 124.47L125.484 124.918C125.806 123.924 126.03 122.384 126.114 121.208V131.218H127.78V121.656C128.018 122.23 128.228 122.846 128.312 123.266L129.11 122.902C128.97 123.196 128.83 123.462 128.69 123.714C129.082 123.882 129.838 124.26 130.174 124.47C130.468 123.938 130.748 123.266 130.958 122.538H132.498V124.834H129.796V126.388H132.498V129.188H128.76V130.77H137.468V129.188H134.164Z" fill="black" fill-opacity="0.16"/>
<path d="M57.3167 22.3414L87.3167 82.3414L92.6833 79.6582L62.6833 19.6582L57.3167 22.3414Z" fill="black" fill-opacity="0.16"/>
<path fill-rule="evenodd" clip-rule="evenodd" d="M102 65.9998C102 70.7366 98.3408 74.6185 93.6951 74.9734L90.7083 68.9998H93C94.6569 68.9998 96 67.6567 96 65.9998V52.4998L85.1666 57.9165L69.7083 26.9998H93C97.9706 26.9998 102 31.0292 102 35.9998V65.9998ZM93 41.9998C93 45.3135 90.3137 47.9998 87 47.9998C83.6863 47.9998 81 45.3135 81 41.9998C81 38.6862 83.6863 35.9998 87 35.9998C90.3137 35.9998 93 38.6862 93 41.9998Z" fill="black" fill-opacity="0.16"/>
<path d="M54 55.4998L67.2334 48.8831L56.3049 27.0263C51.6592 27.3811 48 31.2632 48 35.9998V65.9998C48 70.9704 52.0294 74.9998 57 74.9998H80.2917L77.2917 68.9998H57C55.3431 68.9998 54 67.6567 54 65.9998V55.4998Z" fill="black" fill-opacity="0.16"/>
</svg>
