<svg width="150" height="150" viewBox="0 0 150 150" fill="none" xmlns="http://www.w3.org/2000/svg">
<rect width="150" height="150" fill="#F5F5F5"/>
<path d="M46.264 101.064C46.088 100.248 45.64 99 45.176 98.056L43.624 98.6C44.04 99.544 44.472 100.856 44.616 101.672L46.264 101.064ZM46.056 107.224V106.184H49.336V107.224H46.056ZM49.336 103.592V104.584H46.056V103.592H49.336ZM51.176 101.816H48.616V97.448H46.728V101.816H44.232V112.2H46.056V108.824H49.336V110.136C49.336 110.344 49.256 110.408 49.048 110.424C48.824 110.424 48.136 110.424 47.512 110.392C47.736 110.872 47.96 111.656 48.024 112.168C49.144 112.168 49.896 112.136 50.44 111.848C51.016 111.544 51.176 111.048 51.176 110.168V101.816ZM50.632 101.576C51.032 100.76 51.528 99.512 51.944 98.344L50.056 97.928C49.848 98.92 49.432 100.28 49.048 101.176L50.632 101.576ZM54.248 99.384H52.408V108.312H54.248V99.384ZM55.928 97.752V110.04C55.928 110.344 55.8 110.44 55.496 110.456C55.16 110.456 54.136 110.456 53.096 110.408C53.384 110.952 53.672 111.832 53.752 112.376C55.208 112.392 56.28 112.328 56.936 112.008C57.592 111.688 57.816 111.176 57.816 110.056V97.752H55.928ZM63.928 98.056L63.656 98.136H60.184V112.392H61.832V99.832H63.08C62.824 100.92 62.488 102.312 62.168 103.32C63.064 104.392 63.272 105.384 63.272 106.12C63.272 106.568 63.208 106.888 63.032 107.016C62.904 107.112 62.76 107.144 62.584 107.16C62.376 107.16 62.168 107.16 61.88 107.144C62.136 107.592 62.28 108.312 62.296 108.76C62.664 108.776 63.048 108.76 63.32 108.728C63.688 108.664 63.992 108.568 64.248 108.392C64.744 108.04 64.952 107.368 64.952 106.344C64.952 105.416 64.744 104.344 63.784 103.128C64.232 101.88 64.76 100.136 65.176 98.776L63.928 98.056ZM66.056 107.256C65.656 108.488 64.92 109.672 64.056 110.456C64.456 110.712 65.096 111.256 65.4 111.544C66.296 110.616 67.208 109.144 67.72 107.672L66.056 107.256ZM66.856 102.056C67.912 101.144 68.84 100.088 69.432 99.16C70.072 100.104 71.064 101.176 72.136 102.056H66.856ZM73.768 106.664V105.064H70.376V103.608H72.6V102.44C72.968 102.712 73.336 102.968 73.688 103.192C73.944 102.664 74.344 101.992 74.696 101.56C73.032 100.76 71.352 99.128 70.216 97.464H68.536C67.72 98.952 66.04 100.744 64.312 101.704C64.632 102.088 65.048 102.76 65.24 103.224C65.64 103 66.024 102.728 66.392 102.44V103.608H68.568V105.064H65.432V106.664H68.568V110.408C68.568 110.584 68.504 110.632 68.328 110.648C68.12 110.648 67.528 110.648 66.92 110.632C67.176 111.112 67.448 111.88 67.528 112.392C68.472 112.392 69.192 112.344 69.688 112.056C70.232 111.768 70.376 111.272 70.376 110.424V106.664H73.768ZM70.904 107.88C71.688 109 72.552 110.52 72.824 111.48L74.392 110.696C74.088 109.72 73.176 108.28 72.36 107.192L70.904 107.88ZM78.808 105.88C77.896 107.752 76.744 109.768 75.944 110.984L77.608 112.168C78.504 110.6 79.448 108.76 80.248 107.064L78.808 105.88ZM79.464 103.352C78.824 102.808 77.496 102.184 76.504 101.832L75.496 103.256C76.504 103.688 77.768 104.392 78.376 104.936L79.464 103.352ZM87.192 104.744V105.4H83.272V104.696H81.928C83.08 104.392 84.168 104.024 85.16 103.56C86.296 104.104 87.544 104.456 88.856 104.744H87.192ZM83.176 108.088C83.24 107.704 83.256 107.32 83.272 106.984H87.192V108.088H83.176ZM86.648 100.536C86.264 100.968 85.8 101.352 85.256 101.688C84.696 101.384 84.168 101 83.656 100.536H86.648ZM90.28 100.536V98.888H86.2V97.464H84.232V98.888H80.216V99C79.544 98.488 78.36 97.88 77.448 97.528L76.408 98.936C77.416 99.368 78.664 100.104 79.24 100.664L80.216 99.272V100.536H81.464C82.072 101.352 82.744 101.992 83.464 102.536C82.296 102.952 80.952 103.24 79.56 103.432C79.848 103.8 80.296 104.6 80.456 105.032C80.792 104.968 81.128 104.888 81.448 104.808V106.552C81.448 107.912 81.24 110.136 79.448 111.544C79.912 111.752 80.632 112.264 80.968 112.552C81.96 111.752 82.52 110.712 82.856 109.656H87.192V112.36H89.064V104.792L89.64 104.904C89.816 104.312 90.248 103.624 90.664 103.192C89.352 103.016 88.136 102.792 87 102.44C87.704 101.896 88.312 101.272 88.792 100.536H90.28ZM95.176 107.944C94.888 108.344 94.664 108.488 94.344 108.488C94.024 108.488 93.752 108.184 93.752 107.736C93.752 106.744 94.712 105.672 96.472 105.4C96.024 106.376 95.576 107.352 95.176 107.944ZM106.28 106.68C105.816 106.376 105.24 105.992 104.584 105.624C104.744 104.728 104.824 103.736 104.888 102.68L102.808 102.44C102.872 102.952 102.856 103.56 102.824 104.168C102.808 104.344 102.792 104.52 102.776 104.712C101.752 104.264 100.6 103.88 99.368 103.688C99.928 102.344 100.504 100.968 100.92 100.296C101.048 100.072 101.224 99.864 101.448 99.624L100.184 98.632C99.912 98.744 99.496 98.84 99.112 98.872C98.376 98.936 96.68 99 95.784 99C95.432 99 94.888 98.984 94.472 98.936L94.552 100.984C94.952 100.92 95.512 100.856 95.848 100.84C96.568 100.792 97.928 100.744 98.552 100.728C98.184 101.48 97.736 102.552 97.288 103.576C94.104 103.72 91.88 105.608 91.88 108.056C91.88 109.656 92.92 110.616 94.312 110.616C95.4 110.616 96.152 110.184 96.776 109.224C97.336 108.344 98.024 106.776 98.616 105.416C99.96 105.608 101.208 106.088 102.328 106.696C101.8 108.136 100.696 109.656 98.296 110.68L99.992 112.056C102.104 110.952 103.304 109.56 104.008 107.768C104.488 108.12 104.952 108.504 105.368 108.872L106.28 106.68ZM29.448 126.456C30.472 127.432 31.08 128.456 31.08 129.528C31.08 130.84 29.864 131.848 27.656 131.848C26.088 131.848 25.288 131.128 25.288 129.832C25.288 129.544 25.32 129.144 25.352 128.68C25.56 128.68 25.784 128.68 25.992 128.68C26.968 128.68 27.896 128.616 28.792 128.536L28.84 126.648C27.8 126.76 26.632 126.84 25.656 126.84H25.544C25.624 126.136 25.72 125.384 25.816 124.68C27.096 124.68 27.96 124.632 28.904 124.536L28.968 122.648C28.216 122.76 27.192 122.824 26.056 122.84C26.136 122.328 26.184 121.912 26.232 121.64C26.296 121.224 26.376 120.808 26.504 120.232L24.28 120.104C24.312 120.632 24.28 121.08 24.248 121.512C24.216 121.864 24.184 122.296 24.12 122.776C22.968 122.68 21.784 122.488 20.872 122.184L20.76 124.024C21.688 124.28 22.808 124.472 23.912 124.584C23.816 125.304 23.736 126.04 23.64 126.744C22.616 126.648 21.544 126.472 20.52 126.12L20.408 128.04C21.256 128.28 22.296 128.456 23.448 128.568C23.384 129.224 23.336 129.784 23.336 130.168C23.336 132.808 25.096 133.896 27.592 133.896C31.064 133.896 33.208 132.168 33.208 129.784C33.208 128.44 32.728 127.32 31.672 125.976L29.448 126.456ZM38.408 120.328C38.552 120.952 38.616 121.72 38.616 122.472C38.616 123.832 38.456 127.992 38.456 130.12C38.456 132.824 40.136 133.96 42.728 133.96C46.344 133.96 48.584 131.848 49.608 130.344L48.168 128.568C47.032 130.296 45.368 131.8 42.744 131.8C41.528 131.8 40.568 131.288 40.568 129.688C40.568 127.72 40.68 124.168 40.76 122.472C40.776 121.832 40.856 121.032 40.968 120.36L38.408 120.328ZM60.856 119.864C60.6 120.232 60.088 120.76 59.64 121.192C58.568 122.248 56.392 124.008 55.16 125.016C53.576 126.328 53.448 127.208 55.016 128.536C56.472 129.768 58.888 131.832 59.752 132.744C60.2 133.224 60.696 133.72 61.144 134.216L62.984 132.52C61.416 131 58.36 128.584 57.176 127.576C56.312 126.84 56.296 126.664 57.144 125.944C58.2 125.032 60.296 123.416 61.32 122.584C61.688 122.296 62.216 121.88 62.712 121.512L60.856 119.864ZM69.368 120.504C69.368 121 69.288 121.608 69.224 122.056C69.032 123.272 68.568 126.264 68.568 128.664C68.568 130.808 68.872 132.616 69.192 133.72L70.984 133.592C70.968 133.368 70.968 133.096 70.968 132.936C70.952 132.76 71 132.424 71.048 132.2C71.224 131.336 71.736 129.72 72.184 128.424L71.208 127.64C70.968 128.168 70.712 128.696 70.504 129.256C70.456 128.936 70.44 128.552 70.44 128.232C70.44 126.648 70.952 123.16 71.192 122.104C71.256 121.816 71.448 121.016 71.576 120.696L69.368 120.504ZM77.368 130.344C77.368 131.272 77.032 131.784 76.056 131.784C75.224 131.784 74.584 131.496 74.584 130.856C74.584 130.264 75.192 129.896 76.088 129.896C76.52 129.896 76.952 129.96 77.368 130.072V130.344ZM82.376 130.984C81.64 130.296 80.648 129.48 79.32 128.936C79.256 127.864 79.176 126.6 79.144 125.064C80.008 125 80.84 124.904 81.608 124.792V122.824C80.856 122.984 80.024 123.096 79.16 123.192C79.16 122.488 79.192 121.896 79.208 121.544C79.224 121.208 79.256 120.824 79.304 120.52H77.032C77.08 120.84 77.128 121.32 77.128 121.56C77.144 121.896 77.144 122.536 77.16 123.32C76.792 123.336 76.408 123.336 76.04 123.336C75.096 123.336 74.184 123.288 73.272 123.192V125.08C74.216 125.144 75.112 125.176 76.04 125.176C76.408 125.176 76.792 125.176 77.176 125.16C77.192 126.28 77.24 127.432 77.288 128.408C76.968 128.36 76.616 128.344 76.248 128.344C74.088 128.344 72.728 129.448 72.728 131.064C72.728 132.728 74.104 133.656 76.28 133.656C78.424 133.656 79.288 132.568 79.384 131.064C80.008 131.496 80.648 132.024 81.304 132.648L82.376 130.984ZM90.984 128.12L89.832 128.28C89.896 127.816 89.928 127.384 89.928 126.984V119.528H88.056V121.576H84.136V123.352H88.056V125.256H84.312V126.984H88.056V127C88.056 127.432 88.008 127.976 87.88 128.536C86.2 128.76 84.632 128.952 83.48 129.064L83.832 130.952C84.792 130.808 85.928 130.632 87.128 130.44C86.504 131.496 85.48 132.488 83.88 133.16C84.344 133.544 84.952 134.136 85.272 134.584C87.576 133.464 88.792 131.736 89.384 130.072L91.048 129.8L90.984 128.12ZM98.424 128.952H93.816V126.984H97.784V125.256H93.816V123.352H98.136V121.576H93.816V119.528H91.912V134.392H93.816V130.712H98.424V128.952ZM108.232 120.616C109.4 122.808 111.24 125.336 112.744 126.952C113.112 126.424 113.848 125.688 114.344 125.288C112.888 123.944 111.064 121.704 110.136 119.832L108.232 120.616ZM103.736 119.8C102.904 122.024 101.4 124.216 99.752 125.512C100.264 125.816 101.192 126.536 101.576 126.936C103.208 125.416 104.888 122.936 105.912 120.424L103.736 119.8ZM108.504 128.776C109.096 129.56 109.736 130.472 110.312 131.368C108.456 131.464 106.584 131.56 104.856 131.64C105.832 129.912 106.872 127.768 107.704 125.8L105.416 125.272C104.808 127.272 103.704 129.832 102.68 131.736L100.456 131.816L100.712 133.816C103.528 133.688 107.56 133.448 111.4 133.192C111.672 133.656 111.896 134.088 112.056 134.472L114.04 133.432C113.256 131.896 111.752 129.64 110.36 127.912L108.504 128.776ZM120.664 121.416V122.232H118.152V121.416H120.664ZM118.152 124.344V123.464H120.664V124.344H118.152ZM122.456 125.72V120.056H116.296V134.392H118.152V125.72H122.456ZM122.2 129.24V128.04H123.688V129.24H122.2ZM127.112 130.792V129.24H125.352V128.04H126.856V126.536H119.128V128.04H120.584V129.24H118.904V130.792H120.52C120.36 131.608 119.912 132.648 118.888 133.288C119.256 133.544 119.832 134.04 120.104 134.376C121.464 133.448 121.992 131.896 122.152 130.792H123.688V134.088H125.352V130.792H127.112ZM125.32 124.376V123.464H127.912V124.376H125.32ZM127.912 121.416V122.232H125.32V121.416H127.912ZM129.784 120.056H123.512V125.752H127.912V132.152C127.912 132.376 127.832 132.472 127.576 132.472C127.336 132.488 126.552 132.488 125.832 132.456C126.088 132.952 126.344 133.816 126.408 134.344C127.624 134.344 128.456 134.296 129.032 133.976C129.608 133.672 129.784 133.144 129.784 132.168V120.056Z" fill="black" fill-opacity="0.16"/>
<path fill-rule="evenodd" clip-rule="evenodd" d="M56 81C51.0294 81 47 76.9706 47 72V30C47 25.0294 51.0294 21 56 21H86C90.9706 21 95 25.0294 95 30V60H107V72C107 76.9706 102.971 81 98 81H56ZM95 72C95 72.7957 95.3161 73.5587 95.8787 74.1213C96.4413 74.6839 97.2043 75 98 75C98.7957 75 99.5587 74.6839 100.121 74.1213C100.684 73.5587 101 72.7957 101 72V66H95V72ZM74.2456 65.5406C74.2456 67.4512 72.6968 69 70.7862 69C68.8757 69 67.3269 67.4512 67.3269 65.5406C67.3269 63.6301 68.8757 62.0813 70.7862 62.0813C72.6968 62.0813 74.2456 63.6301 74.2456 65.5406ZM74.019 55.1902C74.1297 54.9688 74.3511 54.6091 74.4894 54.3877C75.2426 53.283 76.2919 52.3631 77.3556 51.4305C79.8096 49.2789 82.3407 47.0598 81.4912 42.3491C80.6886 37.672 76.9525 33.8252 72.2754 33.1333C66.5744 32.303 61.5376 35.8178 60.0154 40.8546C59.545 42.4598 60.7627 44.0926 62.4232 44.0926H62.9767C64.1113 44.0926 65.0246 43.29 65.4121 42.2937C66.2977 39.8306 68.8991 38.1425 71.7773 38.7513C74.4341 39.3048 76.3713 41.9339 76.1223 44.6461C75.9348 46.7592 74.4252 47.9279 72.75 49.2248C71.7047 50.0341 70.5949 50.8932 69.7017 52.063C69.6444 52.1202 69.4556 52.388 69.3167 52.585C69.2541 52.6738 69.2016 52.7481 69.1759 52.7825C68.9268 53.17 68.5947 53.8342 68.4286 54.277C68.401 54.3046 68.401 54.3323 68.401 54.36C68.0689 55.3563 67.8475 56.5463 67.8475 57.9577H73.4101C73.4101 57.2659 73.4931 56.657 73.6869 56.0758C73.7146 55.9651 73.9636 55.2733 74.019 55.1902Z" fill="black" fill-opacity="0.16"/>
</svg>
