<svg xmlns="http://www.w3.org/2000/svg" width="1158.483" height="163.925" viewBox="0 0 306.515 43.372"><defs><clipPath id="a" clipPathUnits="userSpaceOnUse"><path d="M113.652 804.549h426.47V697.924h-426.47z"/></clipPath><clipPath id="b" clipPathUnits="userSpaceOnUse"><path d="M101.83 682.865h433.477V560.197H101.83Z"/></clipPath></defs><g clip-path="url(#a)" opacity=".25" transform="matrix(.35278 0 0 -.35278 -40.094 289.584)"><path d="M0 0h-59.707v-17.455h77.208v88.666H.039Z" style="fill:#000;fill-opacity:1;fill-rule:nonzero;stroke:none" transform="translate(394.426 715.379)"/><path d="M350.876 769.254h-32.307v17.467h32.307zM350.876 739.664h-32.307v17.466h32.307z" style="fill:#000;fill-opacity:1;fill-rule:nonzero;stroke:none"/><path d="M0 0c1.565 0 2.911.472 4.087 1.494 1.135 1.217 1.705 2.602 1.705 4.117 0 1.602-.588 2.975-1.705 4.018C2.992 10.804 1.614 11.4 0 11.4c-1.533 0-2.894-.584-4.045-1.742-1.098-1.094-1.653-2.456-1.653-4.047 0-1.507.539-2.881 1.745-4.23C-2.813.464-1.483 0 0 0m-.014-8.315c-3.473 0-6.599 1.102-9.281 3.288l-.098.074-.084.092c-3.098 3.341-4.542 6.662-4.542 10.447 0 3.817 1.411 7.25 4.079 9.932 2.734 2.741 6.169 4.189 9.926 4.189 3.935 0 7.433-1.51 10.123-4.381 2.511-2.316 4.008-5.896 4.008-9.74 0-3.65-1.388-7.061-4.013-9.857C7.033-6.992 3.668-8.315-.014-8.315" style="fill:#000;fill-opacity:1;fill-rule:nonzero;stroke:none" transform="translate(193.109 784.842)"/><path d="m0 0-.008 35.572h75.957v17.633H-.033v30.631h-17.466V-17.455h93.495V0Z" style="fill:#000;fill-opacity:1;fill-rule:nonzero;stroke:none" transform="translate(131.15 715.379)"/><path d="M517.275 781.865h9.929v17.366h-9.929zM530.191 781.865h9.931v17.366h-9.931z" style="fill:#000;fill-opacity:1;fill-rule:nonzero;stroke:none"/><path d="M0 0h17.501v88.406h-93.497V70.955H0Z" style="fill:#000;fill-opacity:1;fill-rule:nonzero;stroke:none" transform="translate(496.787 697.924)"/><path d="M0 0v12.905h-17.381v-59.347H0v28.99h58.65v-70.926h17.462V0Z" style="fill:#000;fill-opacity:1;fill-rule:nonzero;stroke:none" transform="translate(233.673 786.302)"/></g><path d="M0 0h-59.707v-17.455h77.208v88.666H.039Z" style="fill:#fff;fill-opacity:1;fill-rule:nonzero;stroke:none" transform="matrix(.35278 0 0 -.35278 99.05 36.509)"/><path d="M116.26 15.561h-11.397V9.4h11.397zM116.26 26h-11.397v-6.162h11.397z" style="fill:#fff;fill-opacity:1;fill-rule:nonzero;stroke:none;stroke-width:.352778" transform="translate(-32.573 1.942)"/><path d="M0 0c1.565 0 2.911.472 4.087 1.494 1.135 1.217 1.705 2.602 1.705 4.117 0 1.602-.588 2.975-1.705 4.018C2.992 10.804 1.614 11.4 0 11.4c-1.533 0-2.894-.584-4.045-1.742-1.098-1.094-1.653-2.456-1.653-4.047 0-1.507.539-2.881 1.745-4.23C-2.813.464-1.483 0 0 0m-.014-8.315c-3.473 0-6.599 1.102-9.281 3.288l-.098.074-.084.092c-3.098 3.341-4.542 6.662-4.542 10.447 0 3.817 1.411 7.25 4.079 9.932 2.734 2.741 6.169 4.189 9.926 4.189 3.935 0 7.433-1.51 10.123-4.381 2.511-2.316 4.008-5.896 4.008-9.74 0-3.65-1.388-7.061-4.013-9.857C7.033-6.992 3.668-8.315-.014-8.315" style="fill:#fff;fill-opacity:1;fill-rule:nonzero;stroke:none" transform="matrix(.35278 0 0 -.35278 28.03 12.004)"/><path d="m0 0-.008 35.572h75.957v17.633H-.033v30.631h-17.466V-17.455h93.495V0Z" style="fill:#fff;fill-opacity:1;fill-rule:nonzero;stroke:none" transform="matrix(.35278 0 0 -.35278 6.173 36.509)"/><path d="M174.962 11.112h3.503V4.986h-3.503zM179.518 11.112h3.504V4.986h-3.504z" style="fill:#fff;fill-opacity:1;fill-rule:nonzero;stroke:none;stroke-width:.352778" transform="translate(-32.573 1.942)"/><path d="M0 0h17.501v88.406h-93.497V70.955H0Z" style="fill:#fff;fill-opacity:1;fill-rule:nonzero;stroke:none" transform="matrix(.35278 0 0 -.35278 135.162 42.666)"/><path d="M0 0v12.905h-17.381v-59.347H0v28.99h58.65v-70.926h17.462V0Z" style="fill:#fff;fill-opacity:1;fill-rule:nonzero;stroke:none" transform="matrix(.35278 0 0 -.35278 42.34 11.489)"/><g clip-path="url(#b)" opacity=".25" transform="matrix(.35278 0 0 -.35278 117.67 240.9)"><path d="M181.418 592.246h-58.579V577.57h58.579zm0 28.065h-58.579v-14.229h58.579zm21.903 41.194V644.14h-42.02l-2.445-6.299h40.017v-77.37h-93.488v77.37h32.681l2.336 6.299H101.83v17.365z" style="fill:#020202;fill-opacity:1;fill-rule:nonzero;stroke:none"/><path d="M0 0v17.183l-6.409-.009-6.595 6.479h-16.748L-9.573 0Z" style="fill:#020202;fill-opacity:1;fill-rule:nonzero;stroke:none" transform="translate(285.43 631.108)"/><path d="M0 0v17.179l-6.409-.005-6.595 6.48h-16.748L-9.573 0Z" style="fill:#020202;fill-opacity:1;fill-rule:nonzero;stroke:none" transform="translate(285.43 603.39)"/><path d="M0 0v69.718l-2.023 6.5-7.039-2.961-6.782 2.961-2.276-6.5V-.11h-33.035v-14.291h33.035v-17.373H0v17.39h6.779V0Z" style="fill:#020202;fill-opacity:1;fill-rule:nonzero;stroke:none" transform="translate(306.242 591.972)"/><path d="m0 0-5.187 9.908L-10.294 0l5.107-2.263Z" style="fill:#020202;fill-opacity:1;fill-rule:nonzero;stroke:none" transform="translate(302.367 672.957)"/><path d="M0 0v17.365h-40.583V0h12.767v-4.591h-12.767v-14.137h12.767v-6.314h-12.767v-57.361h4.321l5.892 12.228 2.554 31.092v-44.766h15.119v44.825l2.556-31.151 5.891-12.228H0v57.361h-12.697v6.314H0v14.137h-12.697V0Z" style="fill:#020202;fill-opacity:1;fill-rule:nonzero;stroke:none" transform="translate(252.685 644.14)"/><path d="m0 0-11.969-21.9H-42.65v12.535h13.789L-19.562 0Z" style="fill:#020202;fill-opacity:1;fill-rule:nonzero;stroke:none" transform="translate(475.572 582.191)"/><path d="m0 0 11.969-21.9h30.683v12.535H28.868L19.564 0Z" style="fill:#020202;fill-opacity:1;fill-rule:nonzero;stroke:none" transform="translate(492.654 582.191)"/><path d="M504.955 601.433h8.451v11.896h-8.451zm0 31.572h8.451v11.448h-8.451zm-25.232-31.572h8.447v11.896h-8.447zm0 31.572h8.447v11.448h-8.447zm-24.455-31.572h7.443v11.896h-7.443zm0 31.572h7.443v11.448h-7.443zm7.443 28.466v6.722h17.012v-6.722h8.447v6.722h16.785v-6.722h23.763v-60.038h6.589v-17.132H432.922v17.132h6.588v60.038zM398.166 593.26h-20.008v-3.201h20.008zm0 15.846h-20.008v-3.2h20.008zm.445 27.837h-20.453v-5.031h20.453zm-38.685 0h-20.455v-5.031h20.455zm18.232 11.969v-3.314h40.352v-20.994h-40.352v-2.86h40.352v-15.801h6.599V593.26h-6.599v-15.821h-40.242v-17.148h-45.58v12.612h27.199v4.536h-38.389v12.62h38.428v3.201h-38.428v12.683h38.428v3.118h-38.428v12.683h38.428v2.86h-38.428v20.994h38.428v3.314h-38.428v12.572h38.428v6.594h18.232v-6.594h40.352v-12.572z" style="fill:#020202;fill-opacity:1;fill-rule:nonzero;stroke:none"/></g><path d="M214.244 29.321h-20.666V34.5h20.666zm0-9.9h-20.666v5.02h20.666zm7.726-14.533v6.126h-14.823l-.863 2.222h14.117v27.295h-32.98V13.236h11.529l.824-2.222h-13.607V4.888Z" style="fill:#40c2ff;fill-opacity:1;fill-rule:nonzero;stroke:none;stroke-width:.352778" transform="translate(-32.573 1.942)"/><path d="M0 0v17.183l-6.409-.009-6.595 6.479h-16.748L-9.573 0Z" style="fill:#40c2ff;fill-opacity:1;fill-rule:nonzero;stroke:none" transform="matrix(.35278 0 0 -.35278 218.364 17.553)"/><path d="M0 0v17.179l-6.409-.005-6.595 6.48h-16.748L-9.573 0Z" style="fill:#40c2ff;fill-opacity:1;fill-rule:nonzero;stroke:none" transform="matrix(.35278 0 0 -.35278 218.364 27.331)"/><path d="M0 0v69.718l-2.023 6.5-7.039-2.961-6.782 2.961-2.276-6.5V-.11h-33.035v-14.291h33.035v-17.373H0v17.39h6.779V0Z" style="fill:#40c2ff;fill-opacity:1;fill-rule:nonzero;stroke:none" transform="matrix(.35278 0 0 -.35278 225.706 31.36)"/><path d="m0 0-5.187 9.908L-10.294 0l5.107-2.263Z" style="fill:#40c2ff;fill-opacity:1;fill-rule:nonzero;stroke:none" transform="matrix(.35278 0 0 -.35278 224.222 3.507)"/><path d="M0 0v17.365h-40.583V0h12.767v-4.591h-12.767v-14.137h12.767v-6.314h-12.767v-57.361h4.321l5.892 12.228 2.554 31.092v-44.766h15.119v44.825l2.556-31.151 5.891-12.228H0v57.361h-12.697v6.314H0v14.137h-12.697V0Z" style="fill:#40c2ff;fill-opacity:1;fill-rule:nonzero;stroke:none" transform="matrix(.35278 0 0 -.35278 206.812 12.956)"/><path d="m0 0-11.969-21.9H-42.65v12.535h13.789L-19.562 0Z" style="fill:#40c2ff;fill-opacity:1;fill-rule:nonzero;stroke:none" transform="matrix(.35278 0 0 -.35278 285.442 34.81)"/><path d="m324.04 32.868 4.223 7.726h10.824v-4.422h-4.862l-3.282-3.304zM328.38 26.08h2.982v-4.196h-2.982zm0-11.138h2.982v-4.038h-2.982zM319.48 26.08h2.98v-4.196h-2.98zm0-11.138h2.98v-4.038h-2.98zm-8.627 11.138h2.625v-4.196h-2.625zm0-11.138h2.625v-4.038h-2.625zM313.477 4.9V2.53h6.002V4.9h2.98V2.53h5.921V4.9h8.383v21.18h2.325v6.044h-36.12V26.08h2.325V4.9ZM290.707 28.964h-7.058v1.129h7.058zm0-5.59h-7.058v1.128h7.058zm.157-9.82h-7.215v1.774h7.215zm-13.647 0h-7.216v1.774h7.216zm6.432-4.223V10.5h14.235v7.406H283.65v1.009h14.235v5.574h2.328v4.475h-2.328v5.58h-14.196v6.05h-16.08v-4.449h9.595v-1.6h-13.542v-4.452h13.556v-1.13h-13.556V24.49h13.556v-1.1h-13.556v-4.474h13.556v-1.009h-13.556V10.5h13.556V9.33h-13.556V4.897h13.556V2.569h6.432v2.327h14.235V9.33Z" style="fill:#40c2ff;fill-opacity:1;fill-rule:nonzero;stroke:none;stroke-width:.352778" transform="translate(-32.573 1.942)"/></svg>
