<?xml version="1.0" encoding="UTF-8"?>
<svg width="201px" height="49px" viewBox="0 0 201 49" version="1.1" xmlns="http://www.w3.org/2000/svg" xmlns:xlink="http://www.w3.org/1999/xlink">
    <title>biligame-logo-w200</title>
    <defs>
        <rect id="path-1" x="0" y="0" width="200" height="49"></rect>
    </defs>
    <g id="ICON" stroke="none" stroke-width="1" fill="none" fill-rule="evenodd">
        <g id="biligame-logo-w200" transform="translate(0.244898, 0.000000)">
            <mask id="mask-2" fill="white">
                <use xlink:href="#path-1"></use>
            </mask>
            <g id="Mask"></g>
            <g id="广告" mask="url(#mask-2)" fill="#0CB6F2">
                <g transform="translate(-0.315789, 1.289474)">
                    <path d="M142.615789,12.1210526 L142.615789,9.8 C142.615789,9.67105263 142.615789,9.54210526 142.486842,9.54210526 C142.357895,9.41315789 142.357895,9.41315789 142.228947,9.41315789 L138.618421,9.41315789 L137.2,6.06052632 C137.2,5.93157895 137.071053,5.80263158 136.942105,5.67368421 C136.813158,5.54473684 136.684211,5.54473684 136.555263,5.54473684 L132.171053,5.54473684 C132.042105,5.54473684 132.042105,5.54473684 131.913158,5.54473684 C131.913158,5.54473684 131.784211,5.67368421 131.784211,5.67368421 C131.784211,5.67368421 131.784211,5.80263158 131.784211,5.80263158 C131.784211,5.93157895 131.784211,5.93157895 131.784211,5.93157895 L133.202632,9.28421053 L129.721053,9.28421053 C129.721053,9.28421053 129.592105,9.28421053 129.592105,9.28421053 C129.592105,9.28421053 129.463158,9.28421053 129.463158,9.41315789 C129.463158,9.41315789 129.334211,9.54210526 129.334211,9.54210526 C129.334211,9.54210526 129.334211,9.67105263 129.334211,9.67105263 L129.334211,11.9921053 C129.334211,11.9921053 129.334211,12.1210526 129.334211,12.1210526 C129.334211,12.1210526 129.334211,12.25 129.463158,12.25 C129.592105,12.25 129.592105,12.3789474 129.592105,12.3789474 C129.592105,12.3789474 129.721053,12.3789474 129.721053,12.3789474 L131.139474,12.3789474 L129.721053,46.6789474 C129.721053,46.6789474 129.721053,46.8078947 129.721053,46.8078947 C129.721053,46.8078947 129.721053,46.9368421 129.85,46.9368421 C129.85,46.9368421 129.978947,47.0657895 129.978947,47.0657895 C129.978947,47.0657895 130.107895,47.0657895 130.107895,47.0657895 L134.105263,47.0657895 C134.363158,47.0657895 134.492105,46.9368421 134.621053,46.8078947 C134.75,46.6789474 134.878947,46.4210526 134.878947,46.2921053 L136.039474,19.2131579 L136.942105,19.2131579 C137.2,19.2131579 137.328947,19.3421053 137.457895,19.4710526 C137.586842,19.6 137.715789,19.8578947 137.715789,19.9868421 L137.715789,43.1973684 C137.715789,43.4552632 137.586842,43.5842105 137.457895,43.7131579 C137.328947,43.8421053 137.071053,43.9710526 136.942105,43.9710526 L136.426316,43.9710526 C136.297368,43.9710526 136.297368,43.9710526 136.168421,43.9710526 C136.168421,43.9710526 136.039474,44.1 136.039474,44.1 C136.039474,44.1 136.039474,44.2289474 136.039474,44.2289474 C136.039474,44.3578947 136.039474,44.3578947 136.039474,44.3578947 L136.942105,46.4210526 C136.942105,46.55 137.071053,46.6789474 137.2,46.8078947 C137.328947,46.9368421 137.457895,46.9368421 137.586842,46.9368421 L141.197368,46.9368421 C141.455263,46.9368421 141.584211,46.9368421 141.842105,46.8078947 C141.971053,46.6789474 142.228947,46.6789474 142.357895,46.4210526 C142.486842,46.2921053 142.615789,46.1631579 142.744737,45.9052632 C142.873684,45.7763158 142.873684,45.5184211 142.873684,45.2605263 L142.873684,17.9236842 C142.873684,17.5368421 142.744737,17.15 142.357895,16.8921053 C142.1,16.6342105 141.713158,16.3763158 141.197368,16.3763158 L136.168421,16.3763158 L136.297368,12.5078947 L142.357895,12.5078947 C142.486842,12.5078947 142.615789,12.5078947 142.615789,12.3789474 C142.615789,12.3789474 142.615789,12.25 142.615789,12.1210526 L142.615789,12.1210526 Z" id="Path" fill-rule="nonzero"></path>
                    <path d="M155.510526,17.0210526 L155.510526,15.2157895 C155.510526,15.0868421 155.510526,14.9578947 155.510526,14.9578947 C155.510526,14.8289474 155.381579,14.8289474 155.381579,14.7 C155.381579,14.5710526 155.252632,14.5710526 155.123684,14.5710526 C154.994737,14.5710526 154.865789,14.5710526 154.865789,14.5710526 L144.678947,14.5710526 C144.55,14.5710526 144.421053,14.5710526 144.421053,14.7 C144.292105,14.8289474 144.292105,14.8289474 144.292105,14.9578947 L144.292105,17.2789474 C144.292105,17.4078947 144.292105,17.5368421 144.421053,17.5368421 C144.55,17.6657895 144.55,17.6657895 144.678947,17.6657895 L149.578947,17.6657895 C149.578947,17.6657895 149.707895,17.6657895 149.707895,17.6657895 C149.707895,17.6657895 149.836842,17.7947368 149.836842,17.7947368 C149.836842,17.7947368 149.836842,17.9236842 149.965789,17.9236842 C149.965789,17.9236842 149.965789,18.0526316 149.965789,18.0526316 L147.902632,24.8868421 L144.034211,24.8868421 C143.905263,24.8868421 143.776316,24.8868421 143.776316,25.0157895 C143.647368,25.1447368 143.647368,25.1447368 143.647368,25.2736842 L143.647368,27.5947368 C143.647368,27.7236842 143.647368,27.8526316 143.776316,27.8526316 C143.905263,27.9815789 143.905263,27.9815789 144.034211,27.9815789 L148.160526,27.9815789 L148.160526,43.4552632 C148.160526,43.7131579 148.031579,43.8421053 147.902632,43.9710526 C147.773684,44.1 147.515789,44.2289474 147.386842,44.2289474 L146.226316,44.2289474 C146.097368,44.2289474 146.097368,44.2289474 146.097368,44.2289474 C146.097368,44.2289474 145.968421,44.3578947 145.968421,44.3578947 C145.968421,44.3578947 145.968421,44.4868421 145.968421,44.4868421 C145.968421,44.6157895 145.968421,44.6157895 145.968421,44.6157895 L146.871053,46.6789474 C146.871053,46.8078947 147,46.9368421 147.128947,47.0657895 C147.257895,47.1947368 147.386842,47.1947368 147.515789,47.1947368 L152.157895,47.1947368 C152.415789,47.1947368 152.544737,47.1947368 152.802632,47.0657895 C152.931579,46.9368421 153.189474,46.9368421 153.318421,46.6789474 C153.447368,46.55 153.576316,46.4210526 153.705263,46.1631579 C153.834211,46.0342105 153.834211,45.7763158 153.834211,45.5184211 L153.834211,27.9815789 L156.155263,27.9815789 C156.155263,27.9815789 156.284211,27.9815789 156.284211,27.9815789 C156.284211,27.9815789 156.413158,27.9815789 156.413158,27.8526316 C156.413158,27.8526316 156.542105,27.7236842 156.542105,27.7236842 C156.542105,27.7236842 156.542105,27.5947368 156.542105,27.5947368 L156.542105,25.2736842 C156.542105,25.2736842 156.542105,25.1447368 156.542105,25.1447368 C156.542105,25.1447368 156.542105,25.0157895 156.413158,25.0157895 C156.413158,25.0157895 156.284211,24.8868421 156.284211,24.8868421 C156.284211,24.8868421 156.155263,24.8868421 156.155263,24.8868421 L153.705263,24.8868421 L155.897368,17.9236842 C155.381579,17.6657895 155.510526,17.4078947 155.510526,17.0210526 L155.510526,17.0210526 Z" id="Path" fill-rule="nonzero"></path>
                    <path d="M127.657895,16.7631579 L127.271053,7.09210526 C127.271053,6.83421053 127.142105,6.70526316 127.013158,6.57631579 C126.884211,6.44736842 126.626316,6.31842105 126.497368,6.31842105 L121.726316,6.31842105 C121.726316,6.31842105 121.597368,6.31842105 121.597368,6.31842105 C121.597368,6.31842105 121.468421,6.31842105 121.468421,6.44736842 C121.468421,6.44736842 121.339474,6.57631579 121.339474,6.57631579 C121.339474,6.57631579 121.339474,6.70526316 121.339474,6.70526316 L121.726316,16.3763158 C121.726316,16.6342105 121.855263,16.7631579 121.984211,16.8921053 C122.113158,17.0210526 122.371053,17.15 122.5,17.15 L127.271053,17.15 C127.271053,17.15 127.4,17.15 127.4,17.15 C127.4,17.15 127.528947,17.15 127.528947,17.0210526 C127.528947,16.8921053 127.657895,16.8921053 127.657895,16.8921053 C127.657895,16.8921053 127.657895,16.7631579 127.657895,16.7631579 L127.657895,16.7631579 Z" id="Path" fill-rule="nonzero"></path>
                    <path d="M127.4,32.6236842 L122.628947,32.6236842 C122.371053,32.6236842 122.242105,32.7526316 122.113158,32.8815789 C121.984211,33.0105263 121.855263,33.2684211 121.855263,33.3973684 L121.339474,46.9368421 C121.339474,46.9368421 121.339474,47.0657895 121.339474,47.0657895 C121.339474,47.0657895 121.339474,47.1947368 121.468421,47.1947368 C121.468421,47.1947368 121.597368,47.3236842 121.597368,47.3236842 C121.597368,47.3236842 121.726316,47.3236842 121.726316,47.3236842 L126.497368,47.3236842 C126.755263,47.3236842 126.884211,47.1947368 127.013158,47.0657895 C127.142105,46.9368421 127.271053,46.6789474 127.271053,46.55 L127.786842,33.0105263 C127.786842,33.0105263 127.786842,32.8815789 127.786842,32.8815789 C127.786842,32.8815789 127.786842,32.7526316 127.657895,32.7526316 C127.657895,32.7526316 127.528947,32.6236842 127.528947,32.6236842 C127.528947,32.6236842 127.4,32.6236842 127.4,32.6236842 L127.4,32.6236842 Z" id="Path" fill-rule="nonzero"></path>
                    <path d="M127.657895,29.9157895 L127.271053,20.2447368 C127.271053,19.9868421 127.142105,19.8578947 127.013158,19.7289474 C126.884211,19.6 126.626316,19.4710526 126.497368,19.4710526 L121.726316,19.4710526 C121.726316,19.4710526 121.597368,19.4710526 121.597368,19.4710526 C121.597368,19.4710526 121.468421,19.4710526 121.468421,19.6 C121.468421,19.6 121.339474,19.7289474 121.339474,19.7289474 C121.339474,19.7289474 121.339474,19.8578947 121.339474,19.8578947 L121.726316,29.5289474 C121.726316,29.7868421 121.855263,29.9157895 121.984211,30.0447368 C122.113158,30.1736842 122.371053,30.3026316 122.5,30.3026316 L127.271053,30.3026316 C127.271053,30.3026316 127.4,30.3026316 127.4,30.3026316 C127.4,30.3026316 127.528947,30.3026316 127.528947,30.1736842 C127.528947,30.1736842 127.657895,30.0447368 127.657895,30.0447368 C127.657895,29.9157895 127.657895,29.9157895 127.657895,29.9157895 L127.657895,29.9157895 Z" id="Path" fill-rule="nonzero"></path>
                    <path d="M148.031579,5.54473684 L144.936842,5.54473684 C144.807895,5.54473684 144.55,5.67368421 144.421053,5.67368421 C144.292105,5.67368421 144.163158,5.93157895 144.163158,6.18947368 L143.389474,11.9921053 C143.389474,12.1210526 143.389474,12.25 143.389474,12.3789474 C143.389474,12.5078947 143.518421,12.6368421 143.518421,12.6368421 C143.647368,12.7657895 143.647368,12.7657895 143.776316,12.7657895 C143.905263,12.7657895 144.034211,12.8947368 144.163158,12.8947368 L147.386842,12.8947368 C147.515789,12.8947368 147.773684,12.7657895 147.902632,12.6368421 C148.031579,12.5078947 148.160526,12.3789474 148.160526,12.1210526 L148.289474,11.2184211 L155.639474,11.2184211 C155.639474,11.2184211 155.768421,11.2184211 155.768421,11.2184211 C155.768421,11.2184211 155.897368,11.2184211 155.897368,11.0894737 C155.897368,11.0894737 155.897368,10.9605263 156.026316,10.9605263 C156.026316,10.9605263 156.026316,10.8315789 156.026316,10.8315789 L156.026316,8.63947368 C156.026316,8.63947368 156.026316,8.51052632 156.026316,8.51052632 C156.026316,8.51052632 156.026316,8.38157895 155.897368,8.38157895 C155.897368,8.38157895 155.768421,8.25263158 155.768421,8.25263158 C155.768421,8.25263158 155.639474,8.25263158 155.639474,8.25263158 L148.676316,8.25263158 L148.934211,6.44736842 C148.934211,6.31842105 148.934211,6.18947368 148.934211,6.06052632 C148.934211,5.93157895 148.805263,5.80263158 148.805263,5.80263158 C148.676316,5.67368421 148.676316,5.67368421 148.547368,5.54473684 C148.289474,5.54473684 148.160526,5.54473684 148.031579,5.54473684 L148.031579,5.54473684 Z" id="Path" fill-rule="nonzero"></path>
                    <path d="M192.389474,32.6236842 L196.386842,27.8526316 C196.515789,27.7236842 196.515789,27.5947368 196.515789,27.3368421 L196.515789,23.3394737 C196.515789,23.2105263 196.515789,23.2105263 196.386842,23.0815789 C196.386842,22.9526316 196.257895,22.9526316 196.257895,22.9526316 C196.128947,22.9526316 196.128947,22.9526316 196,22.9526316 C195.871053,22.9526316 195.871053,23.0815789 195.742105,23.0815789 L191.486842,28.2394737 L189.939474,18.9552632 L196,18.0526316 C196.128947,18.0526316 196.386842,17.9236842 196.515789,17.7947368 C196.644737,17.6657895 196.773684,17.4078947 196.773684,17.2789474 L196.773684,15.3447368 C196.773684,15.3447368 196.773684,15.2157895 196.773684,15.2157895 C196.773684,15.2157895 196.773684,15.0868421 196.644737,15.0868421 C196.644737,15.0868421 196.515789,15.0868421 196.515789,14.9578947 C196.515789,14.8289474 196.386842,14.9578947 196.386842,14.9578947 L189.681579,15.7315789 L188.005263,6.18947368 C188.005263,6.06052632 187.876316,5.80263158 187.747368,5.67368421 C187.618421,5.54473684 187.360526,5.54473684 187.231579,5.54473684 L181.3,5.54473684 C181.3,5.54473684 181.171053,5.54473684 181.171053,5.54473684 C181.171053,5.54473684 181.042105,5.54473684 181.042105,5.67368421 C181.042105,5.67368421 181.042105,5.80263158 180.913158,5.80263158 C180.913158,5.80263158 180.913158,5.93157895 180.913158,5.93157895 L182.718421,16.5052632 L179.365789,16.8921053 C179.107895,16.8921053 178.978947,17.0210526 178.85,17.15 C178.721053,17.2789474 178.592105,17.5368421 178.721053,17.6657895 L178.721053,19.6 C178.721053,19.6 178.721053,19.7289474 178.721053,19.7289474 C178.721053,19.7289474 178.721053,19.8578947 178.85,19.8578947 C178.85,19.8578947 178.978947,19.8578947 178.978947,19.9868421 C178.978947,19.9868421 179.107895,19.9868421 179.107895,19.9868421 L183.234211,19.4710526 L185.942105,34.9447368 L180.397368,41.5210526 C180.397368,41.65 180.268421,41.65 180.268421,41.7789474 L180.268421,45.1315789 C180.268421,45.2605263 180.268421,45.3894737 180.397368,45.5184211 C180.526316,45.6473684 180.655263,45.7763158 180.784211,45.7763158 C180.913158,45.7763158 181.042105,45.7763158 181.3,45.7763158 C181.428947,45.7763158 181.557895,45.6473684 181.686842,45.5184211 L186.715789,39.5868421 L187.747368,45.9052632 C187.747368,46.2921053 188.005263,46.55 188.263158,46.8078947 C188.521053,47.0657895 188.907895,47.1947368 189.294737,47.1947368 L195.742105,47.1947368 C195.871053,47.1947368 196,47.1947368 196.128947,47.0657895 C196.257895,46.9368421 196.386842,46.8078947 196.386842,46.6789474 L197.289474,44.6157895 C197.289474,44.6157895 197.289474,44.4868421 197.289474,44.4868421 C197.289474,44.3578947 197.289474,44.3578947 197.289474,44.3578947 C197.289474,44.3578947 197.160526,44.2289474 197.160526,44.2289474 C197.160526,44.2289474 197.031579,44.2289474 197.031579,44.2289474 L195.226316,44.2289474 C195.097368,44.2289474 194.839474,44.2289474 194.710526,44.1 C194.581579,43.9710526 194.452632,43.8421053 194.452632,43.5842105 L192.389474,32.6236842 Z" id="Path" fill-rule="nonzero"></path>
                    <path d="M172.015789,25.9184211 L170.339474,29.7868421 L168.663158,25.9184211 C168.534211,25.7894737 168.534211,25.5315789 168.534211,25.2736842 L168.534211,13.6684211 C168.534211,13.6684211 168.534211,13.5394737 168.534211,13.5394737 C168.534211,13.5394737 168.534211,13.4105263 168.405263,13.4105263 C168.405263,13.4105263 168.276316,13.2815789 168.276316,13.2815789 C168.276316,13.2815789 168.147368,13.2815789 168.147368,13.2815789 L163.763158,13.2815789 C163.634211,13.2815789 163.505263,13.2815789 163.505263,13.4105263 C163.376316,13.5394737 163.376316,13.5394737 163.376316,13.6684211 L163.376316,25.0157895 C163.376316,25.4026316 163.505263,25.7894737 163.634211,26.1763158 L167.760526,35.5894737 L162.989474,46.6789474 C162.989474,46.6789474 162.989474,46.8078947 162.989474,46.8078947 C162.989474,46.9368421 162.989474,46.9368421 162.989474,46.9368421 C162.989474,46.9368421 163.118421,47.0657895 163.118421,47.0657895 C163.118421,47.0657895 163.247368,47.0657895 163.376316,47.0657895 L167.373684,47.0657895 C167.502632,47.0657895 167.631579,47.0657895 167.760526,46.9368421 C167.889474,46.8078947 168.018421,46.6789474 168.018421,46.55 L170.339474,41.2631579 L172.660526,46.55 C172.660526,46.6789474 172.789474,46.8078947 172.918421,46.9368421 C173.047368,47.0657895 173.176316,47.0657895 173.305263,47.0657895 L177.302632,47.0657895 C177.431579,47.0657895 177.431579,47.0657895 177.560526,47.0657895 C177.560526,47.0657895 177.689474,46.9368421 177.689474,46.9368421 C177.689474,46.9368421 177.689474,46.8078947 177.689474,46.8078947 C177.689474,46.6789474 177.689474,46.6789474 177.689474,46.6789474 L172.918421,35.5894737 L177.044737,26.1763158 C177.173684,25.7894737 177.302632,25.4026316 177.302632,25.0157895 L177.302632,9.8 C177.302632,9.41315789 177.173684,9.02631579 176.786842,8.76842105 C176.528947,8.51052632 176.142105,8.25263158 175.626316,8.25263158 L162.989474,8.25263158 C162.860526,8.25263158 162.731579,8.25263158 162.731579,8.38157895 C162.731579,8.51052632 162.602632,8.51052632 162.602632,8.63947368 L162.602632,10.9605263 C162.602632,11.0894737 162.602632,11.2184211 162.731579,11.2184211 C162.860526,11.3473684 162.860526,11.3473684 162.989474,11.3473684 L171.242105,11.3473684 C171.371053,11.3473684 171.5,11.3473684 171.5,11.3473684 C171.628947,11.3473684 171.628947,11.4763158 171.757895,11.4763158 C171.886842,11.6052632 171.886842,11.6052632 171.886842,11.7342105 C171.886842,11.8631579 171.886842,11.9921053 171.886842,11.9921053 L171.886842,25.1447368 C172.144737,25.5315789 172.144737,25.7894737 172.015789,25.9184211 L172.015789,25.9184211 Z" id="Path" fill-rule="nonzero"></path>
                    <path d="M194.323684,7.09210526 L189.939474,7.09210526 C189.810526,7.09210526 189.810526,7.09210526 189.681579,7.09210526 C189.681579,7.09210526 189.552632,7.22105263 189.552632,7.22105263 C189.552632,7.22105263 189.552632,7.35 189.552632,7.35 C189.552632,7.47894737 189.552632,7.47894737 189.552632,7.47894737 L191.486842,11.8631579 C191.486842,11.9921053 191.615789,12.1210526 191.744737,12.25 C191.873684,12.3789474 192.002632,12.3789474 192.131579,12.3789474 L196.515789,12.3789474 C196.644737,12.3789474 196.644737,12.3789474 196.644737,12.3789474 C196.644737,12.3789474 196.773684,12.25 196.773684,12.25 C196.773684,12.25 196.773684,12.1210526 196.773684,12.1210526 C196.773684,11.9921053 196.773684,11.9921053 196.773684,11.9921053 L194.839474,7.60789474 C194.839474,7.47894737 194.710526,7.35 194.581579,7.22105263 C194.710526,7.09210526 194.452632,7.09210526 194.323684,7.09210526 L194.323684,7.09210526 Z" id="Path" fill-rule="nonzero"></path>
                    <path d="M37.2657895,5.67368421 L42.1657895,5.02894737 C42.1657895,5.02894737 42.2947368,5.02894737 42.2947368,5.02894737 C42.2947368,5.02894737 42.4236842,5.02894737 42.4236842,5.02894737 C42.4236842,5.02894737 42.4236842,5.02894737 42.5526316,5.15789474 C42.5526316,5.15789474 42.5526316,5.15789474 42.5526316,5.28684211 L45.7763158,41.9078947 C45.7763158,41.9078947 45.7763158,42.0368421 45.7763158,42.0368421 C45.7763158,42.0368421 45.7763158,42.1657895 45.7763158,42.1657895 C45.7763158,42.1657895 45.7763158,42.1657895 45.6473684,42.1657895 C45.6473684,42.1657895 45.5184211,42.1657895 45.5184211,42.1657895 L41.9078947,42.1657895 C41.7789474,42.1657895 41.7789474,42.1657895 41.7789474,42.0368421 C41.7789474,42.0368421 41.65,41.9078947 41.65,41.9078947 L37.1368421,5.80263158 C37.1368421,5.80263158 37.1368421,5.67368421 37.1368421,5.67368421 C37.1368421,5.67368421 37.1368421,5.67368421 37.1368421,5.54473684 C37.1368421,5.67368421 37.1368421,5.67368421 37.2657895,5.67368421 C37.1368421,5.67368421 37.2657895,5.67368421 37.2657895,5.67368421 L37.2657895,5.67368421 Z" id="Path" fill-rule="nonzero"></path>
                    <path d="M30.5605263,25.0157895 L36.1052632,24.3710526 C36.1052632,24.3710526 36.2342105,24.3710526 36.2342105,24.3710526 C36.2342105,24.3710526 36.3631579,24.3710526 36.3631579,24.3710526 C36.3631579,24.3710526 36.3631579,24.3710526 36.4921053,24.5 C36.4921053,24.5 36.4921053,24.6289474 36.4921053,24.6289474 L38.8131579,43.8421053 C38.8131579,43.9710526 38.8131579,43.9710526 38.8131579,43.9710526 C38.8131579,43.9710526 38.6842105,44.1 38.6842105,44.1 L34.5578947,44.6157895 C34.5578947,44.6157895 34.4289474,44.6157895 34.4289474,44.6157895 C34.4289474,44.6157895 34.3,44.4868421 34.3,44.4868421 L30.4315789,25.4026316 C30.4315789,25.4026316 30.4315789,25.2736842 30.4315789,25.2736842 C30.4315789,25.2736842 30.4315789,25.1447368 30.4315789,25.1447368 C30.3026316,25.1447368 30.4315789,25.0157895 30.5605263,25.0157895 C30.4315789,25.0157895 30.4315789,25.0157895 30.5605263,25.0157895 L30.5605263,25.0157895 Z" id="Path" fill-rule="evenodd"></path>
                    <path d="M47.7105263,24.7578947 L53.1263158,24.7578947 C53.1263158,24.7578947 53.2552632,24.7578947 53.2552632,24.7578947 C53.2552632,24.7578947 53.2552632,24.7578947 53.3842105,24.7578947 C53.3842105,24.7578947 53.3842105,24.7578947 53.3842105,24.8868421 C53.3842105,24.8868421 53.3842105,25.0157895 53.3842105,25.0157895 L53.3842105,44.3578947 C53.3842105,44.4868421 53.3842105,44.4868421 53.2552632,44.4868421 C53.2552632,44.4868421 53.1263158,44.6157895 53.1263158,44.6157895 L49.1289474,44.6157895 C49,44.6157895 49,44.6157895 49,44.4868421 C49,44.3578947 48.8710526,44.3578947 48.8710526,44.3578947 L47.4526316,25.0157895 C47.4526316,25.0157895 47.4526316,24.8868421 47.4526316,24.8868421 C47.4526316,24.8868421 47.4526316,24.8868421 47.4526316,24.7578947 C47.5815789,24.7578947 47.5815789,24.7578947 47.7105263,24.7578947 C47.5815789,24.7578947 47.7105263,24.7578947 47.7105263,24.7578947 Z" id="Path" fill-rule="evenodd"></path>
                    <path d="M28.7552632,15.2157895 L31.0763158,14.9578947 C31.2052632,14.9578947 31.2052632,14.9578947 31.3342105,14.9578947 C31.3342105,14.9578947 31.4631579,15.0868421 31.4631579,15.0868421 L32.3657895,22.05 C32.3657895,22.05 32.3657895,22.1789474 32.3657895,22.1789474 C32.3657895,22.1789474 32.3657895,22.3078947 32.3657895,22.3078947 C32.3657895,22.3078947 32.3657895,22.3078947 32.2368421,22.4368421 C32.2368421,22.4368421 32.1078947,22.4368421 32.1078947,22.4368421 L30.1736842,22.6947368 C30.0447368,22.6947368 30.0447368,22.6947368 30.0447368,22.6947368 C30.0447368,22.6947368 29.9157895,22.5657895 29.9157895,22.5657895 L28.4973684,15.4736842 C28.4973684,15.4736842 28.4973684,15.3447368 28.4973684,15.3447368 C28.4973684,15.3447368 28.4973684,15.3447368 28.4973684,15.2157895 C28.6263158,15.3447368 28.6263158,15.3447368 28.7552632,15.2157895 C28.6263158,15.2157895 28.7552632,15.2157895 28.7552632,15.2157895 L28.7552632,15.2157895 Z" id="Path" fill-rule="evenodd"></path>
                    <path d="M32.4947368,15.0868421 L33.3973684,22.05 C33.3973684,22.05 33.3973684,22.1789474 33.3973684,22.1789474 C33.3973684,22.1789474 33.3973684,22.1789474 33.5263158,22.3078947 C33.5263158,22.3078947 33.5263158,22.3078947 33.6552632,22.3078947 C33.6552632,22.3078947 33.7842105,22.3078947 33.7842105,22.3078947 L35.9763158,22.05 C36.1052632,22.05 36.1052632,22.05 36.1052632,21.9210526 C36.1052632,21.9210526 36.1052632,21.7921053 36.1052632,21.7921053 L35.2026316,14.8289474 C35.2026316,14.8289474 35.2026316,14.8289474 35.2026316,14.7 C35.2026316,14.5710526 35.2026316,14.7 35.0736842,14.5710526 C34.9447368,14.4421053 35.0736842,14.5710526 34.9447368,14.5710526 C34.9447368,14.5710526 34.8157895,14.5710526 34.8157895,14.5710526 L32.6236842,14.8289474 C32.6236842,14.8289474 32.4947368,14.8289474 32.4947368,14.8289474 C32.4947368,14.8289474 32.4947368,14.8289474 32.3657895,14.9578947 C32.4947368,14.8289474 32.4947368,14.9578947 32.4947368,15.0868421 C32.4947368,14.9578947 32.3657895,14.9578947 32.4947368,15.0868421 L32.4947368,15.0868421 Z" id="Path" fill-rule="evenodd"></path>
                    <path d="M46.6789474,15.0868421 L47.1947368,22.05 C47.1947368,22.05 47.1947368,22.1789474 47.3236842,22.1789474 C47.3236842,22.1789474 47.4526316,22.1789474 47.4526316,22.1789474 L49.3868421,22.1789474 C49.5157895,22.1789474 49.5157895,22.1789474 49.5157895,22.05 C49.5157895,22.05 49.6447368,21.9210526 49.6447368,21.9210526 L49.5157895,14.9578947 C49.5157895,14.8289474 49.5157895,14.8289474 49.3868421,14.8289474 C49.3868421,14.8289474 49.2578947,14.7 49.2578947,14.7 L46.9368421,14.7 C46.9368421,14.7 46.8078947,14.7 46.8078947,14.7 C46.8078947,14.7 46.8078947,14.7 46.6789474,14.7 C46.6789474,14.9578947 46.6789474,14.9578947 46.6789474,15.0868421 C46.6789474,15.0868421 46.6789474,15.0868421 46.6789474,15.0868421 Z" id="Path" fill-rule="evenodd"></path>
                    <path d="M50.4184211,15.0868421 L50.5473684,22.05 C50.5473684,22.1789474 50.5473684,22.1789474 50.6763158,22.1789474 C50.6763158,22.1789474 50.8052632,22.3078947 50.8052632,22.3078947 L52.8684211,22.3078947 C52.9973684,22.3078947 52.9973684,22.3078947 52.9973684,22.1789474 C52.9973684,22.1789474 53.1263158,22.05 53.1263158,22.05 L53.1263158,15.0868421 C53.1263158,14.9578947 53.1263158,14.9578947 52.9973684,14.9578947 C52.9973684,14.9578947 52.8684211,14.8289474 52.8684211,14.8289474 L50.6763158,14.8289474 C50.5473684,14.8289474 50.5473684,14.8289474 50.5473684,14.9578947 C50.4184211,14.9578947 50.4184211,15.0868421 50.4184211,15.0868421 Z" id="Path" fill-rule="evenodd"></path>
                    <path d="M60.8631579,46.8078947 C60.8631579,46.9368421 60.8631579,46.9368421 60.9921053,46.9368421 C60.9921053,46.9368421 61.1210526,47.0657895 61.1210526,47.0657895 C68.2131579,47.9684211 75.4342105,46.4210526 81.6236842,42.6815789 C84.8473684,40.7473684 89.1026316,36.1052632 82.9131579,32.6236842 C76.3368421,28.8842105 70.4052632,28.6263158 65.3763158,29.0131579 C65.2473684,29.0131579 65.2473684,29.0131579 65.1184211,29.0131579 C65.1184211,29.0131579 64.9894737,28.8842105 64.9894737,28.7552632 C63.7,19.3421053 63.3131579,9.8 63.8289474,0.386842105 C63.8289474,0.386842105 63.8289474,0.257894737 63.8289474,0.257894737 C63.8289474,0.257894737 63.8289474,0.128947368 63.7,0.128947368 C63.7,0.128947368 63.5710526,0.128947368 63.5710526,0.128947368 C63.5710526,0.128947368 63.4421053,0.128947368 63.4421053,0.128947368 L55.1894737,3.09473684 C55.1894737,3.09473684 55.0605263,3.09473684 55.0605263,3.22368421 C55.0605263,3.22368421 55.0605263,3.35263158 55.0605263,3.35263158 C57.7684211,17.6657895 59.7026316,32.2368421 60.8631579,46.8078947 L60.8631579,46.8078947 Z M76.9815789,37.2657895 C74.7894737,39.2 72.4684211,40.8763158 69.8894737,42.1657895 C69.8894737,42.1657895 69.7605263,42.1657895 69.7605263,42.1657895 C69.7605263,42.1657895 69.6315789,42.1657895 69.6315789,42.1657895 C69.6315789,42.1657895 69.5026316,42.1657895 69.5026316,42.0368421 C69.5026316,42.0368421 69.5026316,41.9078947 69.5026316,41.9078947 C69.3736842,41.2631579 68.7289474,37.2657895 68.4710526,34.1710526 C68.4710526,34.1710526 68.4710526,34.0421053 68.4710526,34.0421053 C68.4710526,34.0421053 68.4710526,33.9131579 68.6,33.9131579 C68.6,33.9131579 68.7289474,33.9131579 68.7289474,33.9131579 C68.7289474,33.9131579 68.8578947,33.9131579 68.8578947,33.9131579 C71.6947368,34.4289474 74.5315789,35.3315789 76.9815789,36.75 C77.1105263,37.0078947 77.1105263,37.1368421 76.9815789,37.2657895 Z" id="Shape" fill-rule="evenodd"></path>
                    <path d="M5.80263158,46.8078947 C5.80263158,46.9368421 5.80263158,46.9368421 5.93157895,46.9368421 C5.93157895,46.9368421 6.06052632,47.0657895 6.06052632,47.0657895 C13.1526316,47.9684211 20.3736842,46.4210526 26.5631579,42.6815789 C29.7868421,40.7473684 34.0421053,36.1052632 27.8526316,32.6236842 C21.2763158,28.8842105 15.3447368,28.6263158 10.3157895,29.0131579 C10.1868421,29.0131579 10.1868421,29.0131579 10.0578947,29.0131579 C10.0578947,29.0131579 9.92894737,28.8842105 9.92894737,28.7552632 C8.63947368,19.3421053 8.25263158,9.8 8.76842105,0.257894737 C8.76842105,0.257894737 8.76842105,0.128947368 8.76842105,0.128947368 C8.76842105,0.128947368 8.76842105,0 8.63947368,0 C8.63947368,0 8.51052632,0 8.51052632,0 C8.51052632,0 8.38157895,0 8.38157895,0 L0.128947368,2.96578947 C0.128947368,2.96578947 0,3.09473684 0,3.09473684 C0,3.09473684 0,3.22368421 0,3.22368421 C2.70789474,17.6657895 4.64210526,32.2368421 5.80263158,46.8078947 L5.80263158,46.8078947 Z M21.9210526,37.2657895 C19.7289474,39.2 17.4078947,40.8763158 14.8289474,42.1657895 C14.8289474,42.1657895 14.7,42.1657895 14.7,42.1657895 C14.7,42.1657895 14.5710526,42.1657895 14.5710526,42.1657895 C14.5710526,42.1657895 14.4421053,42.1657895 14.4421053,42.0368421 C14.4421053,42.0368421 14.4421053,41.9078947 14.4421053,41.9078947 C14.3131579,41.2631579 13.6684211,37.2657895 13.4105263,34.1710526 C13.4105263,34.1710526 13.4105263,34.0421053 13.4105263,34.0421053 C13.4105263,34.0421053 13.4105263,33.9131579 13.5394737,33.9131579 C13.5394737,33.9131579 13.6684211,33.9131579 13.6684211,33.9131579 C13.6684211,33.9131579 13.7973684,33.9131579 13.7973684,33.9131579 C16.6342105,34.4289474 19.4710526,35.3315789 21.9210526,36.75 C22.05,37.0078947 22.05,37.1368421 21.9210526,37.2657895 Z" id="Shape" fill-rule="evenodd"></path>
                    <path d="M92.4552632,5.67368421 L97.3552632,5.02894737 C97.3552632,5.02894737 97.4842105,5.02894737 97.4842105,5.02894737 C97.4842105,5.02894737 97.6131579,5.02894737 97.6131579,5.02894737 C97.6131579,5.02894737 97.6131579,5.02894737 97.7421053,5.15789474 C97.7421053,5.15789474 97.7421053,5.15789474 97.7421053,5.28684211 L100.965789,41.9078947 C100.965789,41.9078947 100.965789,42.0368421 100.965789,42.0368421 C100.965789,42.0368421 100.965789,42.1657895 100.965789,42.1657895 C100.965789,42.1657895 100.965789,42.1657895 100.836842,42.1657895 C100.707895,42.1657895 100.707895,42.1657895 100.707895,42.1657895 L97.0973684,42.1657895 C96.9684211,42.1657895 96.9684211,42.1657895 96.9684211,42.0368421 C96.9684211,42.0368421 96.8394737,41.9078947 96.8394737,41.9078947 L92.3263158,5.80263158 C92.3263158,5.67368421 92.3263158,5.67368421 92.4552632,5.67368421 C92.3263158,5.67368421 92.3263158,5.67368421 92.4552632,5.67368421 L92.4552632,5.67368421 Z" id="Path" fill-rule="nonzero"></path>
                    <path d="M85.6210526,25.0157895 L91.1657895,24.3710526 C91.1657895,24.3710526 91.2947368,24.3710526 91.2947368,24.3710526 C91.2947368,24.3710526 91.4236842,24.3710526 91.4236842,24.3710526 C91.4236842,24.3710526 91.4236842,24.3710526 91.5526316,24.5 C91.5526316,24.5 91.5526316,24.6289474 91.5526316,24.6289474 L93.8736842,43.8421053 C93.8736842,43.9710526 93.8736842,43.9710526 93.8736842,43.9710526 C93.8736842,43.9710526 93.7447368,44.1 93.7447368,44.1 L89.6184211,44.6157895 C89.6184211,44.6157895 89.4894737,44.6157895 89.4894737,44.6157895 C89.4894737,44.6157895 89.3605263,44.4868421 89.3605263,44.4868421 L85.4921053,25.4026316 C85.4921053,25.4026316 85.4921053,25.2736842 85.4921053,25.2736842 C85.4921053,25.2736842 85.4921053,25.1447368 85.4921053,25.1447368 C85.4921053,25.1447368 85.4921053,25.0157895 85.6210526,25.0157895 C85.6210526,25.0157895 85.6210526,25.0157895 85.6210526,25.0157895 Z" id="Path" fill-rule="evenodd"></path>
                    <path d="M102.771053,24.7578947 L108.315789,24.7578947 C108.444737,24.7578947 108.444737,24.7578947 108.444737,24.8868421 C108.444737,24.8868421 108.573684,25.0157895 108.573684,25.0157895 L108.573684,44.3578947 C108.573684,44.4868421 108.573684,44.4868421 108.444737,44.4868421 C108.444737,44.4868421 108.315789,44.6157895 108.315789,44.6157895 L104.318421,44.6157895 C104.189474,44.6157895 104.189474,44.6157895 104.189474,44.4868421 C104.189474,44.4868421 104.060526,44.3578947 104.060526,44.3578947 L102.513158,25.0157895 C102.513158,25.0157895 102.513158,24.8868421 102.513158,24.8868421 C102.513158,24.8868421 102.513158,24.8868421 102.513158,24.7578947 C102.642105,24.7578947 102.642105,24.7578947 102.771053,24.7578947 C102.771053,24.7578947 102.771053,24.7578947 102.771053,24.7578947 Z" id="Path" fill-rule="evenodd"></path>
                    <path d="M83.9447368,15.2157895 L86.2657895,14.9578947 C86.3947368,14.9578947 86.3947368,14.9578947 86.5236842,14.9578947 C86.5236842,14.9578947 86.6526316,15.0868421 86.6526316,15.0868421 L87.5552632,22.05 C87.5552632,22.05 87.5552632,22.1789474 87.5552632,22.1789474 C87.5552632,22.1789474 87.5552632,22.3078947 87.5552632,22.3078947 C87.5552632,22.3078947 87.5552632,22.3078947 87.4263158,22.4368421 C87.4263158,22.4368421 87.2973684,22.4368421 87.2973684,22.4368421 L85.4921053,22.6947368 C85.3631579,22.6947368 85.3631579,22.6947368 85.3631579,22.6947368 C85.3631579,22.6947368 85.2342105,22.5657895 85.2342105,22.5657895 L83.6868421,15.4736842 C83.6868421,15.4736842 83.6868421,15.3447368 83.6868421,15.3447368 C83.6868421,15.3447368 83.6868421,15.3447368 83.6868421,15.2157895 C83.6868421,15.3447368 83.8157895,15.3447368 83.9447368,15.2157895 C83.8157895,15.2157895 83.8157895,15.2157895 83.9447368,15.2157895 L83.9447368,15.2157895 Z" id="Path" fill-rule="evenodd"></path>
                    <path d="M87.5552632,15.0868421 L88.4578947,22.05 C88.4578947,22.1789474 88.4578947,22.1789474 88.5868421,22.1789474 C88.5868421,22.1789474 88.7157895,22.1789474 88.7157895,22.1789474 L90.9078947,21.9210526 C91.0368421,21.9210526 91.0368421,21.9210526 91.0368421,21.7921053 C91.0368421,21.7921053 91.0368421,21.6631579 91.0368421,21.6631579 L90.2631579,14.7 C90.2631579,14.7 90.2631579,14.7 90.2631579,14.5710526 C90.2631579,14.5710526 90.2631579,14.5710526 90.2631579,14.4421053 C90.2631579,14.4421053 90.2631579,14.4421053 90.1342105,14.4421053 C90.1342105,14.4421053 90.0052632,14.4421053 90.0052632,14.4421053 L87.8131579,14.7 C87.6842105,14.7 87.6842105,14.7 87.6842105,14.8289474 C87.5552632,14.9578947 87.5552632,14.9578947 87.5552632,15.0868421 L87.5552632,15.0868421 Z" id="Path" fill-rule="evenodd"></path>
                    <path d="M101.739474,15.0868421 L102.255263,22.05 C102.255263,22.05 102.255263,22.1789474 102.384211,22.1789474 C102.384211,22.1789474 102.513158,22.1789474 102.513158,22.1789474 L104.447368,22.1789474 C104.576316,22.1789474 104.576316,22.1789474 104.576316,22.05 C104.576316,22.05 104.705263,21.9210526 104.705263,21.9210526 L104.576316,14.9578947 C104.576316,14.8289474 104.576316,14.8289474 104.447368,14.8289474 C104.447368,14.8289474 104.318421,14.7 104.318421,14.7 L101.997368,14.7 C101.997368,14.7 101.868421,14.7 101.868421,14.7 C101.868421,14.7 101.868421,14.7 101.739474,14.7 C101.610526,14.7 101.868421,14.9578947 101.739474,15.0868421 C101.868421,15.0868421 101.739474,15.0868421 101.739474,15.0868421 Z" id="Path" fill-rule="evenodd"></path>
                    <path d="M105.607895,15.0868421 L105.736842,22.05 C105.736842,22.1789474 105.736842,22.1789474 105.865789,22.1789474 C105.994737,22.1789474 105.994737,22.3078947 105.994737,22.3078947 L108.057895,22.3078947 C108.186842,22.3078947 108.186842,22.3078947 108.186842,22.1789474 C108.186842,22.1789474 108.315789,22.05 108.315789,22.05 L108.315789,15.0868421 C108.315789,15.0868421 108.315789,15.0868421 108.315789,14.9578947 C108.315789,14.9578947 108.315789,14.9578947 108.315789,14.8289474 C108.315789,14.8289474 108.315789,14.8289474 108.186842,14.8289474 C108.186842,14.8289474 108.186842,14.8289474 108.057895,14.8289474 L105.865789,14.8289474 C105.865789,14.8289474 105.736842,14.8289474 105.736842,14.8289474 C105.736842,14.8289474 105.736842,14.8289474 105.607895,14.8289474 C105.607895,14.9578947 105.607895,14.9578947 105.607895,15.0868421 C105.607895,15.0868421 105.607895,15.0868421 105.607895,15.0868421 L105.607895,15.0868421 Z" id="Path" fill-rule="evenodd"></path>
                </g>
            </g>
        </g>
    </g>
</svg>